<svg id="Lager_1" data-name="Lager 1" xmlns="http://www.w3.org/2000/svg" viewBox="0 0 256 256"><defs><style>.cls-1{fill:#2f348a;}.cls-2{fill:#4f65ac;}.cls-3{fill:#3c4d80;}.cls-4{fill:#627bbb;}.cls-5{fill:#93b4dd;}.cls-6{fill:#fff;}</style></defs><g id="Group_5" data-name="Group 5"><g id="Group_3" data-name="Group 3"><g id="Group_2" data-name="Group 2"><g id="Group_1" data-name="Group 1"><path id="Path_1" data-name="Path 1" class="cls-1" d="M128,251.46a3.64,3.64,0,0,1-1.62-.38c-3.65-1.79-89.67-44.2-104.59-72.64C1.9,140.51,20.6,13.1,21.41,7.69a3.69,3.69,0,0,1,3.65-3.15H230.94a3.69,3.69,0,0,1,3.65,3.15c.81,5.4,19.51,132.82-.38,170.75-14.92,28.45-100.93,70.85-104.59,72.64A3.64,3.64,0,0,1,128,251.46ZM28.26,11.93C25.47,32,11.19,142.35,28.32,175,41.08,199.33,116,237.61,128,243.64c12-6,86.92-44.32,99.68-68.64,17.13-32.66,2.85-143,.06-163.07Z"/><path id="Path_2" data-name="Path 2" class="cls-2" d="M230.94,176.72c-14.53,27.71-102.94,71-102.94,71s-88.41-43.34-102.94-71c-19.56-37.29,0-168.48,0-168.48H230.94S250.51,139.43,230.94,176.72Z"/><path id="Path_3" data-name="Path 3" class="cls-3" d="M230.94,8.24h0c3.54,26.15,10.4,129.94-6.64,162.44-14.53,27.71-96.3,71-96.3,71s-63.75-28-93.71-53.37C61.36,215.09,128,247.76,128,247.76s88.41-43.33,103-71C250.5,139.43,230.94,8.24,230.94,8.24Z"/><path id="Path_4" data-name="Path 4" class="cls-4" d="M30.42,180.41c-19.56-37.29,0-168.48,0-168.48L230.9,8.24H25S5.45,139.43,25,176.72c5.28,10.06,20.3,22.18,37.28,33.54C47.6,200,35.13,189.39,30.42,180.41Z"/><path id="Path_5" data-name="Path 5" class="cls-5" d="M63.16,9.53h-35L23.5,52.66S28.17,9.53,63.16,9.53Z"/></g></g></g><g id="Group_4" data-name="Group 4"><path id="Path_6" data-name="Path 6" class="cls-6" d="M93,47.33a3,3,0,0,0-.39,2.76c.69,1.95,2.82,2.57,7.08,3.8,8.43,2.43,22.54,6.5,23.75,20.31a2.47,2.47,0,0,0,2.46,2.25h.22a2.48,2.48,0,0,0,2.24-2.69c-.66-7.49-4.43-13.54-11.18-18-5.46-3.58-11.88-5.43-16.13-6.65-.87-.26-1.86-.54-2.68-.8C110.63,32.1,127.63,28.18,149,36.7a2.47,2.47,0,0,0,1.83-4.59,60.24,60.24,0,0,0-22.23-4.71c-14.31,0-26.39,6.71-35.55,19.94"/><path id="Path_7" data-name="Path 7" class="cls-6" d="M124.29,37.59a31.25,31.25,0,0,0-13.06,5,2.47,2.47,0,0,0,.7,4.43c6.59,1.84,11.27,4.23,13.91,7.11a11.83,11.83,0,0,1,2.91,6.19c.12.52.23,1,.36,1.48a2.47,2.47,0,0,0,4.78-1.28.56.56,0,0,0,0-.12c-.09-.3-.17-.68-.27-1.13-.81-3.72-2.25-10.27-14.7-15.15A27.06,27.06,0,0,1,125,42.48,36,36,0,0,1,145.44,46c4.43,2.16,9.22,5.85,9.81,8.7.1.48.3,1.47-2.48,2.21-7.44,2-13.57,8.18-18.23,18.39-3.77,8.28-5.92,17.59-7.49,24.39-.09.37-.17.74-.26,1.13-1-7.25-2.72-18.25-8.43-27.48C110.8,61.07,98.47,55.26,81.72,56A2.47,2.47,0,1,0,82,61c8.08-.38,15,.93,20.63,3.89a30.08,30.08,0,0,1,11.57,11c5.58,9,7.06,20.34,7.94,27.1.28,2.15.5,3.85.79,5.14.21.93.85,3.78,3.43,3.78s3.37-2.8,3.83-4.31c.53-1.71,1.07-4.09,1.71-6.85,1.52-6.59,3.61-15.62,7.17-23.45,4-8.8,9.07-14.07,15-15.67A9,9,0,0,0,159,58.74a6,6,0,0,0,1.12-5.07c-.86-4.16-5.64-8.81-12.48-12.15a42.39,42.39,0,0,0-18.13-4.32,36,36,0,0,0-5.19.38"/><path id="Path_8" data-name="Path 8" class="cls-6" d="M88.44,33.8C69.18,43.09,60.58,67,60.23,68a2.47,2.47,0,0,0,1.51,3.15,2.42,2.42,0,0,0,1,.13C80.09,70,92,73.57,98.85,76.81c7.42,3.5,10.85,7.34,10.9,7.4A2.47,2.47,0,0,0,113.49,81c-.16-.19-3.95-4.55-12.22-8.5-6.93-3.32-18.45-7-34.93-6.38,3.06-6.76,11-21.45,24.24-27.86a2.47,2.47,0,1,0-2.11-4.47l0,0"/><path id="Path_9" data-name="Path 9" class="cls-6" d="M165.79,40.68a2.49,2.49,0,0,0,.38,3.48,70.66,70.66,0,0,1,15.13,16.9A60.55,60.55,0,0,0,162.92,63,38.26,38.26,0,0,0,148.86,70c-6.76,5.52-8.69,11.58-8.76,11.83a2.47,2.47,0,0,0,4.69,1.55l0-.09c.06-.2,6.62-20.18,40.67-17a2.44,2.44,0,0,0,2.24-1,2.49,2.49,0,0,0,.22-2.47c-.23-.49-5.74-12.05-18.68-22.46a2.46,2.46,0,0,0-3.47.36h0"/><path id="Path_10" data-name="Path 10" class="cls-6" d="M130.3,125.78A15.33,15.33,0,0,1,126,127a18.65,18.65,0,0,1-4.14-1.18,12.32,12.32,0,0,0-3.86-1,2.69,2.69,0,0,0-2.53,1.63c-.62,1.44-.24,3,3.53,6.95a2.47,2.47,0,0,0,3.49.08,2.49,2.49,0,0,0,.76-2,13.21,13.21,0,0,0,2.42.44,9.9,9.9,0,0,0,3.2-.44,2.47,2.47,0,0,0,2.3,2.64h.17a2.44,2.44,0,0,0,1.64-.63c3.69-3.29,5.21-5.1,4.44-7.14a2.91,2.91,0,0,0-2.85-1.82,12.48,12.48,0,0,0-4.23,1.18"/><path id="Path_11" data-name="Path 11" class="cls-6" d="M124.07,132v6c-.79.52-3.68,1.87-12.92,2.36a2.47,2.47,0,0,0,.13,4.94h.13c9.09-.48,14.52-1.87,16.6-4.22a3.46,3.46,0,0,0,1-2.39V132a2.47,2.47,0,1,0-4.93-.1v.1"/><path id="Path_12" data-name="Path 12" class="cls-6" d="M123.85,132v6.65a3.5,3.5,0,0,0,1,2.39c2.09,2.35,7.53,3.74,16.61,4.22h.14a2.47,2.47,0,0,0,.12-4.94c-9.23-.49-12.13-1.84-12.91-2.36v-6a2.47,2.47,0,0,0-4.94,0"/><path id="Path_13" data-name="Path 13" class="cls-6" d="M95.9,195.67a2.46,2.46,0,0,0-1,3.35h0c1.09,2,2.29,4,3.55,5.87a88.81,88.81,0,0,0,17.67,20,2.61,2.61,0,0,0,1.52.52,2.47,2.47,0,0,0,1.51-4.43,84.77,84.77,0,0,1-16.58-18.82c-1.19-1.82-2.32-3.68-3.35-5.55a2.49,2.49,0,0,0-2.17-1.28,2.42,2.42,0,0,0-1.2.32"/><path id="Path_14" data-name="Path 14" class="cls-6" d="M100,115.23c-.4.4-9.92,10.09-13.74,29a77.66,77.66,0,0,0,2.3,40.26,2.46,2.46,0,0,0,2.34,1.7,2.27,2.27,0,0,0,.78-.12,2.48,2.48,0,0,0,1.57-3.12,72.83,72.83,0,0,1-2.15-37.73,59.73,59.73,0,0,1,10.46-24.12l7.07,10.15a2.47,2.47,0,0,0,4.05-2.83l-8.91-12.8a2.49,2.49,0,0,0-1.81-1h-.21a2.47,2.47,0,0,0-1.75.72"/><path id="Path_15" data-name="Path 15" class="cls-6" d="M60.19,136.15c-3.47,11.73-3.76,26-.86,42.5a2.47,2.47,0,0,0,2.43,2,3.11,3.11,0,0,0,.43,0,2.48,2.48,0,0,0,2-2.87c-2.77-15.72-2.52-29.26.73-40.24a2.47,2.47,0,0,0-1.66-3.08,2.82,2.82,0,0,0-.7-.1,2.47,2.47,0,0,0-2.37,1.77"/><path id="Path_16" data-name="Path 16" class="cls-6" d="M65.58,123.81a2.48,2.48,0,0,0,.83,3.4,2.4,2.4,0,0,0,1.28.35,2.44,2.44,0,0,0,2.11-1.18C78,113,90.05,110.06,92.6,110.06a2.48,2.48,0,0,0,0-5c-5.11,0-18.42,4.57-27,18.69"/><path id="Path_17" data-name="Path 17" class="cls-6" d="M72.68,96.44C55.66,106.5,48.76,125,46,138.74a2.47,2.47,0,1,0,4.84,1h0c2.59-12.77,8.91-29.9,24.38-39a37.33,37.33,0,0,1,11.65-4.54,16.22,16.22,0,0,1,6.09-.35,2.47,2.47,0,0,0,1.47-4.72,11,11,0,0,0-3.13-.37c-4.41,0-11.52,1.54-18.6,5.73"/><path id="Path_18" data-name="Path 18" class="cls-6" d="M159.1,91.08a2.47,2.47,0,1,0,1.48,4.72,16.38,16.38,0,0,1,6.08.35,37.29,37.29,0,0,1,11.66,4.54c15.46,9.14,21.79,26.27,24.37,39a2.48,2.48,0,0,0,2.42,2,2.12,2.12,0,0,0,.5-.05,2.47,2.47,0,0,0,1.93-2.92c-2.79-13.74-9.68-32.24-26.71-42.3-7.08-4.19-14.18-5.73-18.6-5.73a11,11,0,0,0-3.13.37"/><path id="Path_19" data-name="Path 19" class="cls-6" d="M84.75,80.48C77,80.91,65.27,84,53.65,96.14a2.47,2.47,0,1,0,3.5,3.49l.07-.07c8.36-8.74,17.63-13.5,27.56-14.13a29.74,29.74,0,0,1,12.51,1.68,2.48,2.48,0,0,0,2-4.54,33.25,33.25,0,0,0-12.33-2.16c-.71,0-1.44,0-2.19.07"/><path id="Path_20" data-name="Path 20" class="cls-6" d="M157.08,21.6a2.47,2.47,0,0,0,1.68,3.06c7,2,13.47,5.65,17.41,9.73A2.47,2.47,0,0,0,179.72,31c-6.51-6.73-15.87-10-19.59-11a2.59,2.59,0,0,0-.68-.09,2.46,2.46,0,0,0-2.37,1.79"/><path id="Path_21" data-name="Path 21" class="cls-6" d="M188.92,43.55a2.48,2.48,0,0,0,0,3.5A52.88,52.88,0,0,1,204,74.5,54.25,54.25,0,0,1,205.12,84a51.27,51.27,0,0,0-54.7-1,2.47,2.47,0,0,0,2.74,4.11,46.06,46.06,0,0,1,16.12-5.94,44.89,44.89,0,0,1,16.86.2A49.45,49.45,0,0,1,206,90.62a2.47,2.47,0,0,0,3.46-.5,2.4,2.4,0,0,0,.47-1.18,51.67,51.67,0,0,0-1-15.24,58.47,58.47,0,0,0-16.47-30.18,2.39,2.39,0,0,0-1.73-.7,2.43,2.43,0,0,0-1.76.74"/><path id="Path_22" data-name="Path 22" class="cls-6" d="M101.55,138a46.8,46.8,0,0,0-4.8,17.84C96,165.54,98,180.11,111,194.55a2.47,2.47,0,0,0,3.69-3.28l0,0c-9.5-10.5-13.89-22.19-13-34.79a42.49,42.49,0,0,1,4.21-16,2.47,2.47,0,1,0-4.31-2.4"/><path id="Path_23" data-name="Path 23" class="cls-6" d="M110.39,153.23A78.19,78.19,0,0,0,111.7,169c2.17,11.7,6.57,20.37,13.1,25.78A2.47,2.47,0,0,0,128,191l-.06,0c-7-5.77-10-15.58-11.38-22.78a75.47,75.47,0,0,1-1.25-14.78,2.48,2.48,0,0,0-2.36-2.58h-.1a2.47,2.47,0,0,0-2.47,2.38"/><path id="Path_24" data-name="Path 24" class="cls-6" d="M151.52,114.52a2.49,2.49,0,0,0-1.82,1l-9.4,12.8a2.47,2.47,0,0,0,4,3v0L151.81,121a63.11,63.11,0,0,1,10.54,24.2c3.74,17.34-2.53,34.72-2.6,34.89a2.47,2.47,0,0,0,1.45,3.17h0a2.44,2.44,0,0,0,3.17-1.46c.29-.76,6.85-18.88,2.79-37.66s-13.32-28.49-13.71-28.89a2.44,2.44,0,0,0-1.76-.75h-.18"/><path id="Path_25" data-name="Path 25" class="cls-6" d="M107.05,87.36c-2.59.36-4.8,2.31-6.58,5.78a26.3,26.3,0,0,0-1.75,4.51,2.49,2.49,0,0,0,.69,2.43c.72.68,7.2,6.67,13.65,7.1.53.72.7,3.58.8,5.14.22,3.54.45,7.21,3.12,8.69a4.37,4.37,0,0,0,2.12.54,7.31,7.31,0,0,0,3.47-1,2.47,2.47,0,0,0-2.36-4.34,4.77,4.77,0,0,1-.83.37,21.08,21.08,0,0,1-.59-4.54,26.07,26.07,0,0,0-.72-5.56c-1-3.47-3.34-4.12-4.64-4.2-3.26-.19-7.28-3-9.49-4.77,1.15-3.23,2.86-5.09,3.8-5.22s3.08,1.26,5.67,5.63a2.47,2.47,0,0,0,4.25-2.53c-3.22-5.41-6.41-8.06-9.72-8.06a5.34,5.34,0,0,0-.89.07"/><path id="Path_26" data-name="Path 26" class="cls-6" d="M134.65,95.13a2.47,2.47,0,0,0,4.24,2.53c2.18-3.67,4.37-5.75,5.86-5.58,1.67.2,3.44,3,4.48,5.46-2.22,1.82-6.17,4.52-9.42,4.71-1.29.07-3.61.72-4.63,4.2a26.64,26.64,0,0,0-.73,5.55,21.07,21.07,0,0,1-.58,4.54,4,4,0,0,1-.84-.37,2.47,2.47,0,1,0-2.35,4.34,7.3,7.3,0,0,0,3.46,1,4.38,4.38,0,0,0,2.13-.54c2.66-1.48,2.89-5.14,3.11-8.69.1-1.56.27-4.41.8-5.14,6.44-.42,12.93-6.41,13.65-7.1a2.46,2.46,0,0,0,.66-2.53c-.31-1-3.17-9.67-9.16-10.37a5.51,5.51,0,0,0-.81,0c-3.44,0-6.68,2.63-9.87,8"/><path id="Path_27" data-name="Path 27" class="cls-6" d="M158.34,106.85a2.47,2.47,0,0,0,2.47,2.47c2.23,0,9.1,3,15.61,10.15a45.82,45.82,0,0,1,11.8,31.39,2.47,2.47,0,0,0,4.94,0c0-30.5-24-46.49-32.35-46.49a2.48,2.48,0,0,0-2.47,2.48"/><path id="Path_28" data-name="Path 28" class="cls-6" d="M148.5,137.08a2.48,2.48,0,0,0-1,3.36,42.44,42.44,0,0,1,4.21,16c.86,12.6-3.52,24.29-13,34.79a2.47,2.47,0,0,0,3.61,3.38l0-.06c13.09-14.45,15-29,14.28-38.69A46.41,46.41,0,0,0,151.85,138a2.47,2.47,0,0,0-2.16-1.27,2.55,2.55,0,0,0-1.2.31"/><path id="Path_29" data-name="Path 29" class="cls-6" d="M140.45,150.86a2.46,2.46,0,0,0-2.36,2.57,75.47,75.47,0,0,1-1.25,14.78c-2.44,13.06-7.53,19.6-11.37,22.78a2.47,2.47,0,1,0,3.09,3.86l.06-.06c6.53-5.4,10.93-14.08,13.1-25.77A78.19,78.19,0,0,0,143,153.23a2.48,2.48,0,0,0-2.47-2.38h-.1"/><path id="Path_30" data-name="Path 30" class="cls-6" d="M80,130.4c-.22.25-5.32,6.45-7.86,18.84a77,77,0,0,0-1,23.23A120.21,120.21,0,0,0,79.55,205a2.48,2.48,0,0,0,2.29,1.55,2.64,2.64,0,0,0,.92-.18,2.48,2.48,0,0,0,1.37-3.22c-5.4-13.46-11-33.5-7.27-52.52,1.79-9,5.28-15.09,6.87-17A2.47,2.47,0,0,0,80,130.38v0"/><path id="Path_31" data-name="Path 31" class="cls-6" d="M169.43,130.18a2.48,2.48,0,0,0-.11,3.49c.1.1,9.64,10.63,3.76,32.82a2.47,2.47,0,0,0,1.75,3,2.29,2.29,0,0,0,.64.08,2.47,2.47,0,0,0,2.38-1.84c6.58-24.8-4.46-36.95-4.93-37.46a2.46,2.46,0,0,0-3.47-.13l0,0"/><path id="Path_32" data-name="Path 32" class="cls-6" d="M124,156.94a2.33,2.33,0,0,1,2.56-2.09,2.45,2.45,0,0,1,2.68,2.18l-2.42,9.67Zm-4.06-.23a2.49,2.49,0,0,0,0,.72l4.68,24a2.47,2.47,0,0,0,2.43,2h.05a2.46,2.46,0,0,0,2.39-2.08l3.75-24a2.41,2.41,0,0,0,0-.71,6.67,6.67,0,0,0-6.73-5.82,6.54,6.54,0,0,0-6.62,5.9"/></g></g></svg>